<svg width="555" height="123" viewBox="0 0 555 123" fill="none" xmlns="http://www.w3.org/2000/svg">
<path d="M0 4C0 1.79086 1.79086 0 4 0H551C553.209 0 555 1.79086 555 4V40H0V4Z" fill="#404040"/>
<path d="M20.2588 17.7637L22.5488 13.0469H24.4629L21.127 19.3359V23H19.3906V19.3359L16.0479 13.0469H17.9688L20.2588 17.7637ZM24.8201 19.2334C24.8201 18.5088 24.9637 17.8571 25.2508 17.2783C25.5379 16.695 25.9412 16.2484 26.4607 15.9385C26.9803 15.624 27.5773 15.4668 28.2518 15.4668C29.2498 15.4668 30.0587 15.7881 30.6785 16.4307C31.3029 17.0732 31.6401 17.9255 31.6902 18.9873L31.6971 19.377C31.6971 20.1061 31.5558 20.7578 31.2732 21.332C30.9952 21.9062 30.5942 22.3506 30.0701 22.665C29.5506 22.9795 28.949 23.1367 28.2654 23.1367C27.2218 23.1367 26.3855 22.7904 25.7566 22.0977C25.1323 21.4004 24.8201 20.473 24.8201 19.3154V19.2334ZM26.4812 19.377C26.4812 20.138 26.6385 20.735 26.9529 21.168C27.2674 21.5964 27.7049 21.8105 28.2654 21.8105C28.826 21.8105 29.2612 21.5918 29.5711 21.1543C29.8855 20.7168 30.0428 20.0765 30.0428 19.2334C30.0428 18.486 29.881 17.8936 29.5574 17.4561C29.2384 17.0186 28.8032 16.7998 28.2518 16.7998C27.7094 16.7998 27.2788 17.0163 26.9598 17.4492C26.6408 17.8776 26.4812 18.5202 26.4812 19.377ZM37.7828 22.2754C37.2952 22.8496 36.6025 23.1367 35.7047 23.1367C34.9026 23.1367 34.2942 22.902 33.8795 22.4326C33.4693 21.9632 33.2643 21.2842 33.2643 20.3955V15.6035H34.9254V20.375C34.9254 21.3138 35.315 21.7832 36.0943 21.7832C36.901 21.7832 37.4456 21.4938 37.7281 20.915V15.6035H39.3893V23H37.8238L37.7828 22.2754ZM45.1537 17.1211C44.935 17.0846 44.7094 17.0664 44.477 17.0664C43.7159 17.0664 43.2032 17.3581 42.9389 17.9414V23H41.2777V15.6035H42.8637L42.9047 16.4307C43.3057 15.7881 43.8617 15.4668 44.5727 15.4668C44.8096 15.4668 45.0056 15.4987 45.1605 15.5625L45.1537 17.1211ZM58.1523 23H56.4297V18.5771H51.9795V23H50.25V13.0469H51.9795V17.1895H56.4297V13.0469H58.1523V23ZM64.7234 22.2754C64.2358 22.8496 63.5431 23.1367 62.6453 23.1367C61.8432 23.1367 61.2348 22.902 60.8201 22.4326C60.41 21.9632 60.2049 21.2842 60.2049 20.3955V15.6035H61.866V20.375C61.866 21.3138 62.2557 21.7832 63.035 21.7832C63.8416 21.7832 64.3862 21.4938 64.6688 20.915V15.6035H66.3299V23H64.7645L64.7234 22.2754ZM67.9107 19.2471C67.9107 18.1077 68.1751 17.194 68.7037 16.5059C69.2324 15.8132 69.941 15.4668 70.8297 15.4668C71.6135 15.4668 72.247 15.7402 72.7301 16.2871V12.5H74.3912V23H72.8873L72.8053 22.2344C72.3085 22.8359 71.6454 23.1367 70.816 23.1367C69.9501 23.1367 69.2483 22.7881 68.7105 22.0908C68.1773 21.3936 67.9107 20.4456 67.9107 19.2471ZM69.5719 19.3906C69.5719 20.1426 69.7154 20.7305 70.0025 21.1543C70.2942 21.5736 70.7066 21.7832 71.2398 21.7832C71.9189 21.7832 72.4156 21.4801 72.7301 20.874V17.7158C72.4247 17.1234 71.9326 16.8271 71.2535 16.8271C70.7158 16.8271 70.301 17.0413 70.0094 17.4697C69.7177 17.8936 69.5719 18.5339 69.5719 19.3906ZM76.0131 19.2471C76.0131 18.1077 76.2774 17.194 76.8061 16.5059C77.3347 15.8132 78.0434 15.4668 78.932 15.4668C79.7159 15.4668 80.3493 15.7402 80.8324 16.2871V12.5H82.4936V23H80.9896L80.9076 22.2344C80.4109 22.8359 79.7478 23.1367 78.9184 23.1367C78.0525 23.1367 77.3506 22.7881 76.8129 22.0908C76.2797 21.3936 76.0131 20.4456 76.0131 19.2471ZM77.6742 19.3906C77.6742 20.1426 77.8178 20.7305 78.1049 21.1543C78.3965 21.5736 78.809 21.7832 79.3422 21.7832C80.0212 21.7832 80.518 21.4801 80.8324 20.874V17.7158C80.5271 17.1234 80.0349 16.8271 79.3559 16.8271C78.8181 16.8271 78.4034 17.0413 78.1117 17.4697C77.8201 17.8936 77.6742 18.5339 77.6742 19.3906ZM86.1936 23H84.5324V12.5H86.1936V23ZM90.7959 20.6211L92.2998 15.6035H94.0703L91.1309 24.1211C90.6797 25.3652 89.9141 25.9873 88.834 25.9873C88.5924 25.9873 88.3258 25.9463 88.0342 25.8643V24.5791L88.3486 24.5996C88.7679 24.5996 89.0824 24.5221 89.292 24.3672C89.5062 24.2168 89.6748 23.9616 89.7979 23.6016L90.0371 22.9658L87.4395 15.6035H89.2305L90.7959 20.6211ZM104.28 20.4365C104.28 19.999 104.125 19.6618 103.815 19.4248C103.51 19.1878 102.956 18.9486 102.154 18.707C101.352 18.4655 100.714 18.1966 100.24 17.9004C99.3329 17.3307 98.8795 16.5879 98.8795 15.6719C98.8795 14.8698 99.2053 14.209 99.857 13.6895C100.513 13.1699 101.363 12.9102 102.407 12.9102C103.1 12.9102 103.717 13.0378 104.259 13.293C104.802 13.5482 105.228 13.9128 105.538 14.3867C105.848 14.8561 106.003 15.3779 106.003 15.9521H104.28C104.28 15.4326 104.116 15.027 103.788 14.7354C103.464 14.4391 102.999 14.291 102.393 14.291C101.828 14.291 101.388 14.4118 101.074 14.6533C100.764 14.8949 100.609 15.2321 100.609 15.665C100.609 16.0296 100.778 16.335 101.115 16.5811C101.452 16.8226 102.008 17.0596 102.783 17.292C103.558 17.5199 104.18 17.7819 104.649 18.0781C105.118 18.3698 105.463 18.707 105.681 19.0898C105.9 19.4681 106.009 19.9124 106.009 20.4229C106.009 21.2523 105.69 21.9131 105.052 22.4053C104.419 22.8929 103.558 23.1367 102.468 23.1367C101.748 23.1367 101.085 23.0046 100.479 22.7402C99.8775 22.4714 99.4081 22.1022 99.0709 21.6328C98.7382 21.1634 98.5719 20.6165 98.5719 19.9922H100.301C100.301 20.5573 100.488 20.9948 100.862 21.3047C101.236 21.6146 101.771 21.7695 102.468 21.7695C103.07 21.7695 103.521 21.6488 103.822 21.4072C104.127 21.1611 104.28 20.8376 104.28 20.4365ZM109.333 23H107.672V15.6035H109.333V23ZM107.57 13.6826C107.57 13.4274 107.649 13.2155 107.809 13.0469C107.973 12.8783 108.205 12.7939 108.506 12.7939C108.807 12.7939 109.039 12.8783 109.204 13.0469C109.368 13.2155 109.45 13.4274 109.45 13.6826C109.45 13.9333 109.368 14.1429 109.204 14.3115C109.039 14.4756 108.807 14.5576 108.506 14.5576C108.205 14.5576 107.973 14.4756 107.809 14.3115C107.649 14.1429 107.57 13.9333 107.57 13.6826ZM111.058 19.2471C111.058 18.0986 111.327 17.1826 111.864 16.499C112.407 15.8109 113.125 15.4668 114.018 15.4668C114.861 15.4668 115.524 15.7607 116.007 16.3486L116.082 15.6035H117.579V22.7744C117.579 23.7451 117.276 24.5107 116.67 25.0713C116.069 25.6318 115.255 25.9121 114.23 25.9121C113.687 25.9121 113.156 25.7982 112.637 25.5703C112.122 25.347 111.73 25.0531 111.461 24.6885L112.247 23.6904C112.758 24.2965 113.387 24.5996 114.134 24.5996C114.685 24.5996 115.121 24.4492 115.44 24.1484C115.759 23.8522 115.918 23.4147 115.918 22.8359V22.3369C115.44 22.8701 114.802 23.1367 114.004 23.1367C113.138 23.1367 112.43 22.7926 111.878 22.1045C111.331 21.4163 111.058 20.4639 111.058 19.2471ZM112.712 19.3906C112.712 20.1335 112.863 20.7191 113.163 21.1475C113.469 21.5713 113.89 21.7832 114.428 21.7832C115.098 21.7832 115.595 21.4961 115.918 20.9219V17.668C115.604 17.1074 115.112 16.8271 114.442 16.8271C113.895 16.8271 113.469 17.0436 113.163 17.4766C112.863 17.9095 112.712 18.5475 112.712 19.3906ZM121.033 15.6035L121.081 16.458C121.628 15.7972 122.346 15.4668 123.234 15.4668C124.775 15.4668 125.559 16.3486 125.586 18.1123V23H123.925V18.208C123.925 17.7386 123.822 17.3923 123.617 17.1689C123.417 16.9411 123.086 16.8271 122.626 16.8271C121.956 16.8271 121.457 17.1302 121.129 17.7363V23H119.468V15.6035H121.033ZM131.904 23C131.831 22.8587 131.767 22.6286 131.713 22.3096C131.184 22.861 130.537 23.1367 129.771 23.1367C129.028 23.1367 128.422 22.9248 127.953 22.501C127.484 22.0771 127.249 21.5531 127.249 20.9287C127.249 20.1403 127.54 19.5365 128.124 19.1172C128.712 18.6934 129.55 18.4814 130.639 18.4814H131.658V17.9961C131.658 17.6133 131.551 17.3079 131.337 17.0801C131.123 16.8477 130.797 16.7314 130.359 16.7314C129.981 16.7314 129.671 16.8271 129.429 17.0186C129.188 17.2054 129.067 17.4447 129.067 17.7363H127.406C127.406 17.3307 127.54 16.9525 127.809 16.6016C128.078 16.2461 128.443 15.9681 128.903 15.7676C129.368 15.5671 129.885 15.4668 130.455 15.4668C131.321 15.4668 132.011 15.6855 132.526 16.123C133.041 16.556 133.305 17.1667 133.319 17.9551V21.291C133.319 21.9564 133.413 22.4873 133.599 22.8838V23H131.904ZM130.079 21.8037C130.407 21.8037 130.715 21.724 131.002 21.5645C131.293 21.4049 131.512 21.1908 131.658 20.9219V19.5273H130.762C130.147 19.5273 129.685 19.6344 129.375 19.8486C129.065 20.0628 128.91 20.3659 128.91 20.7578C128.91 21.0768 129.015 21.332 129.224 21.5234C129.439 21.7103 129.723 21.8037 130.079 21.8037ZM137.34 13.8057V15.6035H138.646V16.834H137.34V20.9629C137.34 21.2454 137.395 21.4505 137.504 21.5781C137.618 21.7012 137.819 21.7627 138.106 21.7627C138.297 21.7627 138.491 21.7399 138.687 21.6943V22.9795C138.309 23.0843 137.944 23.1367 137.593 23.1367C136.317 23.1367 135.679 22.4326 135.679 21.0244V16.834H134.463V15.6035H135.679V13.8057H137.34ZM144.602 22.2754C144.114 22.8496 143.422 23.1367 142.524 23.1367C141.722 23.1367 141.113 22.902 140.699 22.4326C140.288 21.9632 140.083 21.2842 140.083 20.3955V15.6035H141.745V20.375C141.745 21.3138 142.134 21.7832 142.913 21.7832C143.72 21.7832 144.265 21.4938 144.547 20.915V15.6035H146.208V23H144.643L144.602 22.2754ZM151.973 17.1211C151.754 17.0846 151.529 17.0664 151.296 17.0664C150.535 17.0664 150.022 17.3581 149.758 17.9414V23H148.097V15.6035H149.683L149.724 16.4307C150.125 15.7881 150.681 15.4668 151.392 15.4668C151.629 15.4668 151.825 15.4987 151.98 15.5625L151.973 17.1211ZM156.343 23.1367C155.29 23.1367 154.436 22.8063 153.779 22.1455C153.128 21.4801 152.802 20.596 152.802 19.4932V19.2881C152.802 18.5498 152.943 17.8913 153.226 17.3125C153.513 16.7292 153.914 16.2757 154.429 15.9521C154.944 15.6286 155.518 15.4668 156.151 15.4668C157.159 15.4668 157.936 15.7881 158.482 16.4307C159.034 17.0732 159.31 17.9824 159.31 19.1582V19.8281H154.477C154.527 20.4388 154.729 20.9219 155.085 21.2773C155.445 21.6328 155.896 21.8105 156.438 21.8105C157.2 21.8105 157.819 21.5029 158.298 20.8877L159.193 21.7422C158.897 22.1842 158.501 22.5283 158.004 22.7744C157.512 23.016 156.958 23.1367 156.343 23.1367ZM156.145 16.7998C155.689 16.7998 155.32 16.9593 155.037 17.2783C154.759 17.5973 154.581 18.0417 154.504 18.6113H157.669V18.4883C157.632 17.9323 157.484 17.513 157.225 17.2305C156.965 16.9434 156.605 16.7998 156.145 16.7998ZM166.381 19.3018V23H164.652V13.0469H168.46C169.572 13.0469 170.453 13.3363 171.105 13.915C171.761 14.4938 172.089 15.2594 172.089 16.2119C172.089 17.1872 171.768 17.946 171.126 18.4883C170.488 19.0306 169.592 19.3018 168.439 19.3018H166.381ZM166.381 17.9141H168.46C169.075 17.9141 169.544 17.7705 169.868 17.4834C170.191 17.1917 170.353 16.7725 170.353 16.2256C170.353 15.6878 170.189 15.2594 169.861 14.9404C169.533 14.6169 169.082 14.4505 168.507 14.4414H166.381V17.9141ZM177.519 17.1211C177.3 17.0846 177.075 17.0664 176.842 17.0664C176.081 17.0664 175.568 17.3581 175.304 17.9414V23H173.643V15.6035H175.229L175.27 16.4307C175.671 15.7881 176.227 15.4668 176.938 15.4668C177.175 15.4668 177.371 15.4987 177.526 15.5625L177.519 17.1211ZM181.889 23.1367C180.836 23.1367 179.982 22.8063 179.325 22.1455C178.674 21.4801 178.348 20.596 178.348 19.4932V19.2881C178.348 18.5498 178.489 17.8913 178.772 17.3125C179.059 16.7292 179.46 16.2757 179.975 15.9521C180.49 15.6286 181.064 15.4668 181.697 15.4668C182.705 15.4668 183.482 15.7881 184.029 16.4307C184.58 17.0732 184.856 17.9824 184.856 19.1582V19.8281H180.023C180.073 20.4388 180.276 20.9219 180.631 21.2773C180.991 21.6328 181.442 21.8105 181.985 21.8105C182.746 21.8105 183.365 21.5029 183.844 20.8877L184.739 21.7422C184.443 22.1842 184.047 22.5283 183.55 22.7744C183.058 23.016 182.504 23.1367 181.889 23.1367ZM181.691 16.7998C181.235 16.7998 180.866 16.9593 180.583 17.2783C180.305 17.5973 180.127 18.0417 180.05 18.6113H183.215V18.4883C183.179 17.9323 183.03 17.513 182.771 17.2305C182.511 16.9434 182.151 16.7998 181.691 16.7998ZM188.863 20.8945L190.429 15.6035H192.145L189.581 23H188.139L185.555 15.6035H187.277L188.863 20.8945ZM195.154 23H193.493V15.6035H195.154V23ZM193.39 13.6826C193.39 13.4274 193.47 13.2155 193.63 13.0469C193.794 12.8783 194.026 12.7939 194.327 12.7939C194.628 12.7939 194.86 12.8783 195.024 13.0469C195.188 13.2155 195.27 13.4274 195.27 13.6826C195.27 13.9333 195.188 14.1429 195.024 14.3115C194.86 14.4756 194.628 14.5576 194.327 14.5576C194.026 14.5576 193.794 14.4756 193.63 14.3115C193.47 14.1429 193.39 13.9333 193.39 13.6826ZM200.426 23.1367C199.374 23.1367 198.519 22.8063 197.863 22.1455C197.211 21.4801 196.885 20.596 196.885 19.4932V19.2881C196.885 18.5498 197.027 17.8913 197.309 17.3125C197.596 16.7292 197.997 16.2757 198.512 15.9521C199.027 15.6286 199.601 15.4668 200.235 15.4668C201.242 15.4668 202.019 15.7881 202.566 16.4307C203.117 17.0732 203.393 17.9824 203.393 19.1582V19.8281H198.56C198.61 20.4388 198.813 20.9219 199.169 21.2773C199.529 21.6328 199.98 21.8105 200.522 21.8105C201.283 21.8105 201.903 21.5029 202.381 20.8877L203.277 21.7422C202.981 22.1842 202.584 22.5283 202.087 22.7744C201.595 23.016 201.042 23.1367 200.426 23.1367ZM200.228 16.7998C199.772 16.7998 199.403 16.9593 199.121 17.2783C198.843 17.5973 198.665 18.0417 198.587 18.6113H201.753V18.4883C201.716 17.9323 201.568 17.513 201.308 17.2305C201.048 16.9434 200.688 16.7998 200.228 16.7998ZM211.386 20.71L212.562 15.6035H214.182L212.165 23H210.798L209.212 17.9209L207.654 23H206.287L204.263 15.6035H205.883L207.079 20.6553L208.597 15.6035H209.848L211.386 20.71Z" fill="white"/>
<path fill-rule="evenodd" clip-rule="evenodd" d="M539.899 16.4142L538.485 15L534.95 18.5355L531.414 15L530 16.4142L533.536 19.9497L530 23.4853L531.414 24.8995L534.95 21.364L538.485 24.8995L539.899 23.4853L536.364 19.9497L539.899 16.4142Z" fill="white" fill-opacity="0.55"/>
<path fill-rule="evenodd" clip-rule="evenodd" d="M511 15H516V20L514.354 18.3536L509.354 23.3536L511 25H506V20L507.939 21.9393L512.939 16.9393L511 15Z" fill="white" fill-opacity="0.55"/>
<rect x="482" y="23" width="10" height="2" fill="white" fill-opacity="0.55"/>
<path d="M20.8057 59.9736H18.4678V64H17.1484V54.0469H20.4434C21.5645 54.0469 22.4258 54.3021 23.0273 54.8125C23.6335 55.3229 23.9365 56.0658 23.9365 57.041C23.9365 57.6608 23.7679 58.2008 23.4307 58.6611C23.098 59.1214 22.6331 59.4655 22.0361 59.6934L24.374 63.918V64H22.9658L20.8057 59.9736ZM18.4678 58.9004H20.4844C21.1361 58.9004 21.6533 58.7318 22.0361 58.3945C22.4235 58.0573 22.6172 57.6061 22.6172 57.041C22.6172 56.4258 22.4326 55.9541 22.0635 55.626C21.6989 55.2979 21.1702 55.1315 20.4775 55.127H18.4678V58.9004ZM28.6533 64.1367C27.6507 64.1367 26.835 63.8086 26.2061 63.1523C25.5771 62.4915 25.2627 61.6097 25.2627 60.5068V60.2744C25.2627 59.5407 25.4017 58.8867 25.6797 58.3125C25.9622 57.7337 26.3542 57.2826 26.8555 56.959C27.3613 56.6309 27.9082 56.4668 28.4961 56.4668C29.4577 56.4668 30.2051 56.7835 30.7383 57.417C31.2715 58.0505 31.5381 58.9574 31.5381 60.1377V60.6641H26.5273C26.5456 61.3932 26.7575 61.9834 27.1631 62.4346C27.5732 62.8812 28.0928 63.1045 28.7217 63.1045C29.1683 63.1045 29.5465 63.0133 29.8564 62.8311C30.1663 62.6488 30.4375 62.4072 30.6699 62.1064L31.4424 62.708C30.8226 63.6605 29.8929 64.1367 28.6533 64.1367ZM28.4961 57.5059C27.9857 57.5059 27.5573 57.6927 27.2109 58.0664C26.8646 58.4355 26.6504 58.9551 26.5684 59.625H30.2734V59.5293C30.237 58.8867 30.0638 58.39 29.7539 58.0391C29.444 57.6836 29.0247 57.5059 28.4961 57.5059ZM35.9746 63.1045C36.4258 63.1045 36.82 62.9678 37.1572 62.6943C37.4945 62.4209 37.6813 62.0791 37.7178 61.6689H38.9141C38.8913 62.0928 38.7454 62.4961 38.4766 62.8789C38.2077 63.2617 37.8477 63.5671 37.3965 63.7949C36.9499 64.0228 36.4759 64.1367 35.9746 64.1367C34.9674 64.1367 34.1654 63.8018 33.5684 63.1318C32.9759 62.4574 32.6797 61.5368 32.6797 60.3701V60.1582C32.6797 59.4382 32.8118 58.7979 33.0762 58.2373C33.3405 57.6768 33.7188 57.2415 34.2109 56.9316C34.7077 56.6217 35.2933 56.4668 35.9678 56.4668C36.7972 56.4668 37.4854 56.7152 38.0322 57.2119C38.5837 57.7087 38.8776 58.3535 38.9141 59.1465H37.7178C37.6813 58.668 37.499 58.276 37.1709 57.9707C36.8473 57.6608 36.4463 57.5059 35.9678 57.5059C35.3252 57.5059 34.8262 57.7383 34.4707 58.2031C34.1198 58.6634 33.9443 59.3311 33.9443 60.2061V60.4453C33.9443 61.2975 34.1198 61.9538 34.4707 62.4141C34.8216 62.8743 35.3229 63.1045 35.9746 63.1045ZM41.71 64H40.4453V56.6035H41.71V64ZM40.3428 54.6416C40.3428 54.4365 40.4043 54.2633 40.5273 54.1221C40.6549 53.9808 40.8418 53.9102 41.0879 53.9102C41.334 53.9102 41.5208 53.9808 41.6484 54.1221C41.776 54.2633 41.8398 54.4365 41.8398 54.6416C41.8398 54.8467 41.776 55.0176 41.6484 55.1543C41.5208 55.291 41.334 55.3594 41.0879 55.3594C40.8418 55.3594 40.6549 55.291 40.5273 55.1543C40.4043 55.0176 40.3428 54.8467 40.3428 54.6416ZM49.9883 60.3838C49.9883 61.5094 49.7308 62.4163 49.2158 63.1045C48.7008 63.7926 48.0036 64.1367 47.124 64.1367C46.2262 64.1367 45.5199 63.8519 45.0049 63.2822V66.8438H43.7402V56.6035H44.8955L44.957 57.4238C45.472 56.7858 46.1875 56.4668 47.1035 56.4668C47.9922 56.4668 48.694 56.8018 49.209 57.4717C49.7285 58.1416 49.9883 59.0736 49.9883 60.2676V60.3838ZM48.7236 60.2402C48.7236 59.4062 48.5459 58.7477 48.1904 58.2646C47.835 57.7816 47.3473 57.54 46.7275 57.54C45.9619 57.54 45.3877 57.8796 45.0049 58.5586V62.0928C45.3831 62.7673 45.9619 63.1045 46.7412 63.1045C47.3473 63.1045 47.8281 62.8652 48.1836 62.3867C48.5436 61.9036 48.7236 61.1882 48.7236 60.2402ZM52.9756 64H51.7109V56.6035H52.9756V64ZM51.6084 54.6416C51.6084 54.4365 51.6699 54.2633 51.793 54.1221C51.9206 53.9808 52.1074 53.9102 52.3535 53.9102C52.5996 53.9102 52.7865 53.9808 52.9141 54.1221C53.0417 54.2633 53.1055 54.4365 53.1055 54.6416C53.1055 54.8467 53.0417 55.0176 52.9141 55.1543C52.7865 55.291 52.5996 55.3594 52.3535 55.3594C52.1074 55.3594 51.9206 55.291 51.793 55.1543C51.6699 55.0176 51.6084 54.8467 51.6084 54.6416ZM58.0752 64.1367C57.0726 64.1367 56.2568 63.8086 55.6279 63.1523C54.999 62.4915 54.6846 61.6097 54.6846 60.5068V60.2744C54.6846 59.5407 54.8236 58.8867 55.1016 58.3125C55.3841 57.7337 55.776 57.2826 56.2773 56.959C56.7832 56.6309 57.3301 56.4668 57.918 56.4668C58.8796 56.4668 59.627 56.7835 60.1602 57.417C60.6934 58.0505 60.96 58.9574 60.96 60.1377V60.6641H55.9492C55.9674 61.3932 56.1794 61.9834 56.585 62.4346C56.9951 62.8812 57.5146 63.1045 58.1436 63.1045C58.5902 63.1045 58.9684 63.0133 59.2783 62.8311C59.5882 62.6488 59.8594 62.4072 60.0918 62.1064L60.8643 62.708C60.2445 63.6605 59.3148 64.1367 58.0752 64.1367ZM57.918 57.5059C57.4076 57.5059 56.9792 57.6927 56.6328 58.0664C56.2865 58.4355 56.0723 58.9551 55.9902 59.625H59.6953V59.5293C59.6589 58.8867 59.4857 58.39 59.1758 58.0391C58.8659 57.6836 58.4466 57.5059 57.918 57.5059ZM63.626 56.6035L63.667 57.5332C64.2321 56.8223 64.9704 56.4668 65.8818 56.4668C67.445 56.4668 68.2334 57.3486 68.2471 59.1123V64H66.9824V59.1055C66.9779 58.5723 66.8548 58.1781 66.6133 57.9229C66.3763 57.6676 66.0049 57.54 65.499 57.54C65.0889 57.54 64.7288 57.6494 64.4189 57.8682C64.109 58.0869 63.8675 58.374 63.6943 58.7295V64H62.4297V56.6035H63.626ZM71.8701 54.8125V56.6035H73.251V57.5811H71.8701V62.168C71.8701 62.4642 71.9316 62.6875 72.0547 62.8379C72.1777 62.9837 72.3874 63.0566 72.6836 63.0566C72.8294 63.0566 73.0299 63.0293 73.2852 62.9746V64C72.9525 64.0911 72.6289 64.1367 72.3145 64.1367C71.7493 64.1367 71.3232 63.9658 71.0361 63.624C70.749 63.2822 70.6055 62.7969 70.6055 62.168V57.5811H69.2588V56.6035H70.6055V54.8125H71.8701ZM79.041 62.0381C79.041 61.6963 78.9111 61.432 78.6514 61.2451C78.3962 61.0537 77.9473 60.8896 77.3047 60.7529C76.6667 60.6162 76.1585 60.4521 75.7803 60.2607C75.4066 60.0693 75.1286 59.8415 74.9463 59.5771C74.7686 59.3128 74.6797 58.9984 74.6797 58.6338C74.6797 58.0277 74.9349 57.515 75.4453 57.0957C75.9603 56.6764 76.6165 56.4668 77.4141 56.4668C78.2526 56.4668 78.9316 56.6833 79.4512 57.1162C79.9753 57.5492 80.2373 58.1029 80.2373 58.7773H78.9658C78.9658 58.431 78.8177 58.1325 78.5215 57.8818C78.2298 57.6312 77.8607 57.5059 77.4141 57.5059C76.9538 57.5059 76.5938 57.6061 76.334 57.8066C76.0742 58.0072 75.9443 58.2692 75.9443 58.5928C75.9443 58.8981 76.0651 59.1283 76.3066 59.2832C76.5482 59.4382 76.9834 59.5863 77.6123 59.7275C78.2458 59.8688 78.7585 60.0374 79.1504 60.2334C79.5423 60.4294 79.8317 60.6663 80.0186 60.9443C80.21 61.2178 80.3057 61.5527 80.3057 61.9492C80.3057 62.61 80.0413 63.141 79.5127 63.542C78.984 63.9385 78.2982 64.1367 77.4551 64.1367C76.8626 64.1367 76.3385 64.0319 75.8828 63.8223C75.4271 63.6126 75.0693 63.321 74.8096 62.9473C74.5544 62.569 74.4268 62.1611 74.4268 61.7236H75.6914C75.7142 62.1475 75.8828 62.4847 76.1973 62.7354C76.5163 62.9814 76.9355 63.1045 77.4551 63.1045C77.9336 63.1045 78.3164 63.0088 78.6035 62.8174C78.8952 62.6214 79.041 62.3617 79.041 62.0381Z" fill="#777777"/>
<rect x="16" y="78" width="523" height="1" fill="#64798F" fill-opacity="0.122"/>
<path d="M20.0879 95.5635C18.9622 95.2399 18.1419 94.8434 17.627 94.374C17.1165 93.9001 16.8613 93.3167 16.8613 92.624C16.8613 91.8402 17.1735 91.193 17.7979 90.6826C18.4268 90.1676 19.2425 89.9102 20.2451 89.9102C20.9287 89.9102 21.5371 90.0423 22.0703 90.3066C22.6081 90.571 23.0228 90.9355 23.3145 91.4004C23.6107 91.8652 23.7588 92.3734 23.7588 92.9248H22.4395C22.4395 92.3232 22.248 91.8516 21.8652 91.5098C21.4824 91.1634 20.9424 90.9902 20.2451 90.9902C19.598 90.9902 19.0921 91.1338 18.7275 91.4209C18.3675 91.7035 18.1875 92.0977 18.1875 92.6035C18.1875 93.0091 18.3584 93.3532 18.7002 93.6357C19.0465 93.9137 19.6322 94.1689 20.457 94.4014C21.2865 94.6338 21.9336 94.8913 22.3984 95.1738C22.8678 95.4518 23.2142 95.7777 23.4375 96.1514C23.6654 96.5251 23.7793 96.9648 23.7793 97.4707C23.7793 98.2773 23.4648 98.9245 22.8359 99.4121C22.207 99.8952 21.3662 100.137 20.3135 100.137C19.6299 100.137 18.9919 100.007 18.3994 99.7471C17.807 99.4827 17.349 99.1227 17.0254 98.667C16.7064 98.2113 16.5469 97.694 16.5469 97.1152H17.8662C17.8662 97.7168 18.0872 98.193 18.5293 98.5439C18.9759 98.8903 19.5706 99.0635 20.3135 99.0635C21.0062 99.0635 21.5371 98.9222 21.9062 98.6396C22.2754 98.3571 22.46 97.972 22.46 97.4844C22.46 96.9967 22.2891 96.6208 21.9473 96.3564C21.6055 96.0876 20.9857 95.8232 20.0879 95.5635ZM29.8359 99.2686C29.3438 99.8473 28.6214 100.137 27.6689 100.137C26.8805 100.137 26.279 99.9089 25.8643 99.4531C25.4541 98.9928 25.2467 98.3138 25.2422 97.416V92.6035H26.5068V97.3818C26.5068 98.5029 26.9626 99.0635 27.874 99.0635C28.8402 99.0635 29.4827 98.7035 29.8018 97.9834V92.6035H31.0664V100H29.8633L29.8359 99.2686ZM39.2559 96.3838C39.2559 97.514 38.9961 98.4232 38.4766 99.1113C37.957 99.7949 37.2598 100.137 36.3848 100.137C35.4505 100.137 34.7282 99.8063 34.2178 99.1455L34.1562 100H32.9941V89.5H34.2588V93.417C34.7692 92.7835 35.4733 92.4668 36.3711 92.4668C37.2689 92.4668 37.973 92.8063 38.4834 93.4854C38.9984 94.1644 39.2559 95.0941 39.2559 96.2744V96.3838ZM37.9912 96.2402C37.9912 95.3789 37.8249 94.7135 37.4922 94.2441C37.1595 93.7747 36.681 93.54 36.0566 93.54C35.2227 93.54 34.6234 93.9274 34.2588 94.7021V97.9014C34.6462 98.6761 35.25 99.0635 36.0703 99.0635C36.6764 99.0635 37.1481 98.8288 37.4854 98.3594C37.8226 97.89 37.9912 97.1836 37.9912 96.2402ZM42.1611 92.6035V100.854C42.1611 102.276 41.5163 102.987 40.2266 102.987C39.9486 102.987 39.6911 102.946 39.4541 102.864V101.853C39.5999 101.889 39.7913 101.907 40.0283 101.907C40.3109 101.907 40.5251 101.83 40.6709 101.675C40.8213 101.524 40.8965 101.26 40.8965 100.882V92.6035H42.1611ZM40.7666 90.6416C40.7666 90.4411 40.8281 90.2702 40.9512 90.1289C41.0788 89.9831 41.2633 89.9102 41.5049 89.9102C41.751 89.9102 41.9378 89.9808 42.0654 90.1221C42.193 90.2633 42.2568 90.4365 42.2568 90.6416C42.2568 90.8467 42.193 91.0176 42.0654 91.1543C41.9378 91.291 41.751 91.3594 41.5049 91.3594C41.2588 91.3594 41.0742 91.291 40.9512 91.1543C40.8281 91.0176 40.7666 90.8467 40.7666 90.6416ZM47.2744 100.137C46.2718 100.137 45.4561 99.8086 44.8271 99.1523C44.1982 98.4915 43.8838 97.6097 43.8838 96.5068V96.2744C43.8838 95.5407 44.0228 94.8867 44.3008 94.3125C44.5833 93.7337 44.9753 93.2826 45.4766 92.959C45.9824 92.6309 46.5293 92.4668 47.1172 92.4668C48.0788 92.4668 48.8262 92.7835 49.3594 93.417C49.8926 94.0505 50.1592 94.9574 50.1592 96.1377V96.6641H45.1484C45.1667 97.3932 45.3786 97.9834 45.7842 98.4346C46.1943 98.8812 46.7139 99.1045 47.3428 99.1045C47.7894 99.1045 48.1676 99.0133 48.4775 98.8311C48.7874 98.6488 49.0586 98.4072 49.291 98.1064L50.0635 98.708C49.4437 99.6605 48.514 100.137 47.2744 100.137ZM47.1172 93.5059C46.6068 93.5059 46.1784 93.6927 45.832 94.0664C45.4857 94.4355 45.2715 94.9551 45.1895 95.625H48.8945V95.5293C48.8581 94.8867 48.6849 94.39 48.375 94.0391C48.0651 93.6836 47.6458 93.5059 47.1172 93.5059ZM54.5957 99.1045C55.0469 99.1045 55.4411 98.9678 55.7783 98.6943C56.1156 98.4209 56.3024 98.0791 56.3389 97.6689H57.5352C57.5124 98.0928 57.3665 98.4961 57.0977 98.8789C56.8288 99.2617 56.4688 99.5671 56.0176 99.7949C55.571 100.023 55.097 100.137 54.5957 100.137C53.5885 100.137 52.7865 99.8018 52.1895 99.1318C51.597 98.4574 51.3008 97.5368 51.3008 96.3701V96.1582C51.3008 95.4382 51.4329 94.7979 51.6973 94.2373C51.9616 93.6768 52.3398 93.2415 52.832 92.9316C53.3288 92.6217 53.9144 92.4668 54.5889 92.4668C55.4183 92.4668 56.1064 92.7152 56.6533 93.2119C57.2048 93.7087 57.4987 94.3535 57.5352 95.1465H56.3389C56.3024 94.668 56.1201 94.276 55.792 93.9707C55.4684 93.6608 55.0674 93.5059 54.5889 93.5059C53.9463 93.5059 53.4473 93.7383 53.0918 94.2031C52.7409 94.6634 52.5654 95.3311 52.5654 96.2061V96.4453C52.5654 97.2975 52.7409 97.9538 53.0918 98.4141C53.4427 98.8743 53.944 99.1045 54.5957 99.1045ZM60.6729 90.8125V92.6035H62.0537V93.5811H60.6729V98.168C60.6729 98.4642 60.7344 98.6875 60.8574 98.8379C60.9805 98.9837 61.1901 99.0566 61.4863 99.0566C61.6322 99.0566 61.8327 99.0293 62.0879 98.9746V100C61.7552 100.091 61.4316 100.137 61.1172 100.137C60.5521 100.137 60.126 99.9658 59.8389 99.624C59.5518 99.2822 59.4082 98.7969 59.4082 98.168V93.5811H58.0615V92.6035H59.4082V90.8125H60.6729Z" fill="#777777"/>
<rect x="16" y="114" width="523" height="1" fill="#64798F" fill-opacity="0.122"/>
</svg>
