<svg width="555" height="60" viewBox="0 0 555 60" fill="none" xmlns="http://www.w3.org/2000/svg">
<rect y="13.2467" width="555" height="46.7532" fill="white"/>
<rect x="16" y="11" width="97" height="36" rx="4" fill="#1A73E8"/>
<rect x="88" y="11" width="1" height="36" fill="#185ABC"/>
<path d="M41.2139 29.4365C41.2139 28.999 41.0589 28.6618 40.749 28.4248C40.4437 28.1878 39.89 27.9486 39.0879 27.707C38.2858 27.4655 37.6478 27.1966 37.1738 26.9004C36.2669 26.3307 35.8135 25.5879 35.8135 24.6719C35.8135 23.8698 36.1393 23.209 36.791 22.6895C37.4473 22.1699 38.2972 21.9102 39.3408 21.9102C40.0335 21.9102 40.651 22.0378 41.1934 22.293C41.7357 22.5482 42.1618 22.9128 42.4717 23.3867C42.7816 23.8561 42.9365 24.3779 42.9365 24.9521H41.2139C41.2139 24.4326 41.0498 24.027 40.7217 23.7354C40.3981 23.4391 39.9333 23.291 39.3271 23.291C38.762 23.291 38.3223 23.4118 38.0078 23.6533C37.6979 23.8949 37.543 24.2321 37.543 24.665C37.543 25.0296 37.7116 25.335 38.0488 25.5811C38.3861 25.8226 38.9421 26.0596 39.7168 26.292C40.4915 26.5199 41.1136 26.7819 41.583 27.0781C42.0524 27.3698 42.3965 27.707 42.6152 28.0898C42.834 28.4681 42.9434 28.9124 42.9434 29.4229C42.9434 30.2523 42.6243 30.9131 41.9863 31.4053C41.3529 31.8929 40.4915 32.1367 39.4023 32.1367C38.6823 32.1367 38.0192 32.0046 37.4131 31.7402C36.8115 31.4714 36.3421 31.1022 36.0049 30.6328C35.6722 30.1634 35.5059 29.6165 35.5059 28.9922H37.2354C37.2354 29.5573 37.4222 29.9948 37.7959 30.3047C38.1696 30.6146 38.7051 30.7695 39.4023 30.7695C40.0039 30.7695 40.4551 30.6488 40.7559 30.4072C41.0612 30.1611 41.2139 29.8376 41.2139 29.4365ZM48.1576 32.1367C47.1049 32.1367 46.2504 31.8063 45.5941 31.1455C44.9424 30.4801 44.6166 29.596 44.6166 28.4932V28.2881C44.6166 27.5498 44.7579 26.8913 45.0404 26.3125C45.3275 25.7292 45.7286 25.2757 46.2436 24.9521C46.7585 24.6286 47.3327 24.4668 47.9662 24.4668C48.9734 24.4668 49.7504 24.7881 50.2973 25.4307C50.8487 26.0732 51.1244 26.9824 51.1244 28.1582V28.8281H46.2914C46.3415 29.4388 46.5443 29.9219 46.8998 30.2773C47.2598 30.6328 47.711 30.8105 48.2533 30.8105C49.0144 30.8105 49.6342 30.5029 50.1127 29.8877L51.0082 30.7422C50.712 31.1842 50.3155 31.5283 49.8188 31.7744C49.3266 32.016 48.7729 32.1367 48.1576 32.1367ZM47.9594 25.7998C47.5036 25.7998 47.1345 25.9593 46.852 26.2783C46.574 26.5973 46.3962 27.0417 46.3188 27.6113H49.4838V27.4883C49.4473 26.9323 49.2992 26.513 49.0395 26.2305C48.7797 25.9434 48.4197 25.7998 47.9594 25.7998ZM54.5613 24.6035L54.6092 25.458C55.1561 24.7972 55.8738 24.4668 56.7625 24.4668C58.3029 24.4668 59.0867 25.3486 59.1141 27.1123V32H57.4529V27.208C57.4529 26.7386 57.3504 26.3923 57.1453 26.1689C56.9448 25.9411 56.6144 25.8271 56.1541 25.8271C55.4842 25.8271 54.9852 26.1302 54.657 26.7363V32H52.9959V24.6035H54.5613ZM61.1018 28.2471C61.1018 27.1077 61.3661 26.194 61.8947 25.5059C62.4234 24.8132 63.132 24.4668 64.0207 24.4668C64.8046 24.4668 65.438 24.7402 65.9211 25.2871V21.5H67.5822V32H66.0783L65.9963 31.2344C65.4995 31.8359 64.8365 32.1367 64.007 32.1367C63.1411 32.1367 62.4393 31.7881 61.9016 31.0908C61.3684 30.3936 61.1018 29.4456 61.1018 28.2471ZM62.7629 28.3906C62.7629 29.1426 62.9064 29.7305 63.1936 30.1543C63.4852 30.5736 63.8977 30.7832 64.4309 30.7832C65.1099 30.7832 65.6066 30.4801 65.9211 29.874V26.7158C65.6158 26.1234 65.1236 25.8271 64.4445 25.8271C63.9068 25.8271 63.4921 26.0413 63.2004 26.4697C62.9087 26.8936 62.7629 27.5339 62.7629 28.3906Z" fill="white"/>
<path fill-rule="evenodd" clip-rule="evenodd" d="M97 27H105L101 31L97 27Z" fill="white"/>
<path opacity="0.55" fill-rule="evenodd" clip-rule="evenodd" d="M319.8 23.05C319.8 20.8 321.6 19 323.85 19C325.938 19 327.684 20.593 327.9 22.672C328.188 22.627 328.494 22.6 328.8 22.6C332.776 22.6 336 25.8236 336 29.8C336 33.7765 332.776 37 328.8 37C327.054 37 325.362 36.361 324.048 35.2H319.8C318.801 35.2 318 34.399 318 33.4V25.3C318 24.301 318.801 23.5 319.8 23.5V23.05ZM326.1 23.05C326.1 21.8074 325.093 20.8 323.85 20.8C322.607 20.8 321.6 21.8074 321.6 23.05V23.5H326.1V23.05ZM328.8 24.4C331.782 24.4 334.2 26.8177 334.2 29.8C334.2 32.7823 331.782 35.2 328.8 35.2C325.818 35.2 323.4 32.7823 323.4 29.8C323.4 26.8177 325.818 24.4 328.8 24.4ZM327.9 30.7V26.2H329.25V29.935L331.878 31.51L331.176 32.671L327.9 30.7Z" fill="black"/>
<path opacity="0.55" fill-rule="evenodd" clip-rule="evenodd" d="M302.7 35C303.067 34.6334 303.25 34.2007 303.25 33.702V21.898C303.25 21.3994 303.067 20.9667 302.7 20.6C302.333 20.2334 301.901 20.05 301.402 20.05H288.598C288.099 20.05 287.667 20.2334 287.3 20.6C286.933 20.9667 286.75 21.3994 286.75 21.898V33.702C286.75 34.2007 286.933 34.6334 287.3 35C287.667 35.3667 288.099 35.55 288.598 35.55H301.402C301.901 35.55 302.333 35.3667 302.7 35ZM288.598 32.8L291.788 28.664L294.098 31.414L297.288 27.3L301.402 32.8H288.598Z" fill="black"/>
<path opacity="0.55" fill-rule="evenodd" clip-rule="evenodd" d="M265.487 21L270.476 29.7273H265.495L260.505 21H260.513H265.487ZM259.88 22.0909L255.109 30.4545L257.604 34.8182L262.367 26.4545L259.88 22.0909ZM261.349 30.4545L258.855 34.8182H268.396L270.891 30.4545H261.349Z" fill="black"/>
<path opacity="0.55" fill-rule="evenodd" clip-rule="evenodd" d="M235.22 20.8201C233.927 20.06 232.52 19.6801 231 19.6801C229.493 19.6801 228.093 20.06 226.8 20.8201C225.547 21.5534 224.553 22.5467 223.82 23.8001C223.06 25.0934 222.68 26.4934 222.68 28.0001C222.68 29.5067 223.06 30.9067 223.82 32.2001C224.54 33.4534 225.527 34.4467 226.78 35.1801C228.073 35.9401 229.48 36.3201 231 36.3201C232.52 36.3201 233.927 35.9401 235.22 35.1801C236.473 34.4601 237.46 33.4734 238.18 32.2201C238.94 30.9267 239.32 29.5201 239.32 28.0001C239.32 26.48 238.94 25.0734 238.18 23.7801C237.46 22.5267 236.473 21.5401 235.22 20.8201ZM231 34.6801C232.2 34.6801 233.32 34.3734 234.36 33.7601C235.373 33.1734 236.173 32.3734 236.76 31.3601C237.373 30.3201 237.68 29.2001 237.68 28.0001C237.68 26.8 237.373 25.6801 236.76 24.6401C236.173 23.6267 235.373 22.8267 234.36 22.2401C233.32 21.6267 232.2 21.3201 231 21.3201C229.8 21.3201 228.68 21.6267 227.64 22.2401C226.627 22.8267 225.827 23.6267 225.24 24.6401C224.627 25.6801 224.32 26.8 224.32 28.0001C224.32 29.2001 224.627 30.3201 225.24 31.3601C225.827 32.3734 226.627 33.1734 227.64 33.7601C228.68 34.3734 229.8 34.6801 231 34.6801ZM228.08 27.1801C227.72 27.1801 227.42 27.0601 227.18 26.8201C226.94 26.5801 226.82 26.2801 226.82 25.9201C226.82 25.5601 226.94 25.2634 227.18 25.0301C227.42 24.7967 227.72 24.6801 228.08 24.6801C228.44 24.6801 228.737 24.8001 228.97 25.0401C229.203 25.2801 229.32 25.5734 229.32 25.9201C229.32 26.2667 229.2 26.5634 228.96 26.8101C228.72 27.0567 228.427 27.1801 228.08 27.1801ZM231 32.5601C230.027 32.5601 229.157 32.2967 228.39 31.7701C227.623 31.2434 227.073 30.5467 226.74 29.6801H235.26C234.927 30.5467 234.377 31.2434 233.61 31.7701C232.843 32.2967 231.973 32.5601 231 32.5601ZM233.04 26.8201C233.28 27.0601 233.58 27.1801 233.94 27.1801C234.287 27.1801 234.58 27.0567 234.82 26.8101C235.06 26.5634 235.18 26.2667 235.18 25.9201C235.18 25.5734 235.063 25.2801 234.83 25.0401C234.597 24.8001 234.3 24.6801 233.94 24.6801C233.58 24.6801 233.28 24.7967 233.04 25.0301C232.8 25.2634 232.68 25.5601 232.68 25.9201C232.68 26.2801 232.8 26.5801 233.04 26.8201Z" fill="black"/>
<path opacity="0.55" fill-rule="evenodd" clip-rule="evenodd" d="M191.949 29.708C191.692 29.268 191.564 28.7987 191.564 28.3C191.564 27.8014 191.692 27.332 191.949 26.892C192.206 26.452 192.554 26.1037 192.994 25.847C193.434 25.5904 193.903 25.462 194.402 25.462H198.098V23.702H194.402C193.581 23.702 192.818 23.9074 192.114 24.318C191.41 24.7287 190.856 25.286 190.453 25.99C190.05 26.694 189.848 27.464 189.848 28.3C189.848 29.136 190.05 29.906 190.453 30.61C190.856 31.314 191.41 31.8714 192.114 32.282C192.818 32.6927 193.581 32.898 194.402 32.898H198.098V31.138H194.402C193.903 31.138 193.434 31.0097 192.994 30.753C192.554 30.4964 192.206 30.148 191.949 29.708ZM203.598 23.702C204.419 23.702 205.182 23.9074 205.886 24.318C206.59 24.7287 207.144 25.286 207.547 25.99C207.95 26.694 208.152 27.464 208.152 28.3C208.152 29.136 207.95 29.906 207.547 30.61C207.144 31.314 206.59 31.8714 205.886 32.282C205.182 32.6927 204.419 32.898 203.598 32.898H199.902V31.138H203.598C204.097 31.138 204.566 31.0097 205.006 30.753C205.446 30.4964 205.794 30.148 206.051 29.708C206.308 29.268 206.436 28.7987 206.436 28.3C206.436 27.8014 206.308 27.332 206.051 26.892C205.794 26.452 205.446 26.1037 205.006 25.847C204.566 25.5904 204.097 25.462 203.598 25.462H199.902V23.702H203.598ZM201.652 29.202H196.348V27.398H201.652V29.202Z" fill="black"/>
<path opacity="0.55" d="M170.76 23.9999H172V32.5599C172 33.4 171.797 34.1733 171.39 34.8799C170.983 35.5866 170.43 36.1466 169.73 36.5599C169.03 36.9733 168.267 37.1799 167.44 37.1799C166.613 37.1799 165.847 36.9733 165.14 36.5599C164.433 36.1466 163.87 35.5866 163.45 34.8799C163.03 34.1733 162.82 33.4 162.82 32.5599V22.1799C162.82 21.5799 162.973 21.0233 163.28 20.5099C163.587 19.9966 163.997 19.5866 164.51 19.2799C165.023 18.9733 165.58 18.8199 166.18 18.8199C166.78 18.8199 167.333 18.9699 167.84 19.2699C168.347 19.5699 168.75 19.9799 169.05 20.4999C169.35 21.0199 169.5 21.5799 169.5 22.1799V30.9199C169.5 31.2933 169.407 31.6399 169.22 31.9599C169.033 32.2799 168.783 32.5333 168.47 32.7199C168.157 32.9066 167.813 32.9999 167.44 32.9999C167.067 32.9999 166.717 32.9066 166.39 32.7199C166.063 32.5333 165.803 32.2799 165.61 31.9599C165.417 31.6399 165.32 31.2933 165.32 30.9199V23.9999H166.58V30.9199C166.58 31.1599 166.663 31.3566 166.83 31.5099C166.997 31.6633 167.2 31.7399 167.44 31.7399C167.68 31.7399 167.877 31.6633 168.03 31.5099C168.183 31.3566 168.26 31.1599 168.26 30.9199V22.1799C168.26 21.8066 168.167 21.4566 167.98 21.1299C167.793 20.8033 167.54 20.5433 167.22 20.3499C166.9 20.1566 166.553 20.0599 166.18 20.0599C165.807 20.0599 165.46 20.1566 165.14 20.3499C164.82 20.5433 164.563 20.8033 164.37 21.1299C164.177 21.4566 164.08 21.8066 164.08 22.1799V32.5599C164.08 33.1599 164.233 33.7199 164.54 34.2399C164.847 34.7599 165.257 35.1733 165.77 35.4799C166.283 35.7866 166.84 35.9399 167.44 35.9399C168.04 35.9399 168.593 35.7866 169.1 35.4799C169.607 35.1733 170.01 34.7599 170.31 34.2399C170.61 33.7199 170.76 33.1599 170.76 32.5599V23.9999Z" fill="black"/>
<path opacity="0.55" fill-rule="evenodd" clip-rule="evenodd" d="M134.139 19.775H135.861L140.67 32.039H138.696L137.751 29.414H132.249L131.262 32.039H129.309L134.139 19.775ZM137.1 27.65L135 22.106L132.9 27.65H137.1ZM143.5 36.15V33.664H126.5V36.15H143.5Z" fill="black"/>
<path opacity="0.55" fill-rule="evenodd" clip-rule="evenodd" d="M535.984 22.6V20.584H532.528L531.496 19.6H526.528L525.496 20.584H522.016V22.6H535.984ZM523 23.584V33.584C523 34.128 523.2 34.6 523.6 35C524 35.4 524.472 35.6 525.016 35.6H532.984C533.528 35.6 534 35.4 534.4 35C534.8 34.6 535 34.128 535 33.584V23.584H523Z" fill="black"/>
<path opacity="0.55" fill-rule="evenodd" clip-rule="evenodd" d="M499.82 23.1799C500.153 23.5133 500.547 23.6799 501 23.6799C501.453 23.6799 501.847 23.5133 502.18 23.1799C502.513 22.8466 502.68 22.4533 502.68 21.9999C502.68 21.5466 502.513 21.1533 502.18 20.8199C501.847 20.4866 501.453 20.3199 501 20.3199C500.547 20.3199 500.153 20.4866 499.82 20.8199C499.487 21.1533 499.32 21.5466 499.32 21.9999C499.32 22.4533 499.487 22.8466 499.82 23.1799ZM501 26.3199C501.453 26.3199 501.847 26.4866 502.18 26.8199C502.513 27.1533 502.68 27.5466 502.68 27.9999C502.68 28.4533 502.513 28.8466 502.18 29.1799C501.847 29.5133 501.453 29.6799 501 29.6799C500.547 29.6799 500.153 29.5133 499.82 29.1799C499.487 28.8466 499.32 28.4533 499.32 27.9999C499.32 27.5466 499.487 27.1533 499.82 26.8199C500.153 26.4866 500.547 26.3199 501 26.3199ZM501 32.3199C501.453 32.3199 501.847 32.4866 502.18 32.8199C502.513 33.1533 502.68 33.5466 502.68 33.9999C502.68 34.4533 502.513 34.8466 502.18 35.1799C501.847 35.5133 501.453 35.6799 501 35.6799C500.547 35.6799 500.153 35.5133 499.82 35.1799C499.487 34.8466 499.32 34.4533 499.32 33.9999C499.32 33.5466 499.487 33.1533 499.82 32.8199C500.153 32.4866 500.547 32.3199 501 32.3199Z" fill="black"/>
</svg>
